<svg xmlns="http://www.w3.org/2000/svg" xmlns:xlink="http://www.w3.org/1999/xlink" width="172" height="55"><defs><path id="a" d="M0 0h172v55H0z"/></defs><g fill="none" fill-rule="evenodd"><mask id="b" fill="#fff"><use xlink:href="#a"/></mask><path fill="#142E61" d="M172 40.86h-2.06v-9.516H172v9.516zm-7.552-5.578h-1.215v-2.164h1.347c.752 0 1.598.148 1.598 1.102 0 1.035-.977 1.062-1.73 1.062zm3.869-1.048c0-2.218-1.611-2.89-3.526-2.89h-3.619v9.516h2.06v-3.804h1.017l1.955 3.804h2.47l-2.377-4.02c1.32-.24 2.02-1.275 2.02-2.606zm-14.433 2.835l1.136-2.957 1.149 2.957h-2.285zm.343-5.726l-4.04 9.516h2.272l.778-2.017h3.632l.805 2.017H160l-4.068-9.516h-1.704zm-5.806 1.854v7.661h-2.06v-7.661h-2.668v-1.855h7.396v1.856l-2.668-.001zm-5.976-1.855v9.516h-2.06v-9.516h2.06zm-6.234 0h2.06v9.516l-2.693-.001-4.081-6.774h-.027v6.774h-2.06V31.34h2.8l3.975 6.613h.027l-.001-6.612zm-14.089 5.724l1.136-2.957 1.15 2.958h-2.286zm6.115 3.79l-4.068-9.515h-1.704l-4.04 9.515h2.271l.78-2.016h3.63l.807 2.016h2.324zm-12.675-2.688c0-1.748-4.384-.807-4.384-3.979 0-2.03 1.73-3.092 3.565-3.091 1.056 0 2.073.282 2.865.995l-1.412 1.572c-.33-.43-.991-.632-1.493-.632-.58 0-1.386.268-1.386.981 0 1.734 4.305.619 4.305 3.952 0 2.124-1.677 3.132-3.605 3.132-1.202 0-2.259-.363-3.143-1.197l1.466-1.64c.422.565 1.11.9 1.796.9.673 0 1.426-.321 1.426-.993zm-10.236 2.687h-2.06v-9.516h2.06v9.516zm-11.815-4.76c0-3.05 2.126-4.999 5.045-4.998 1.042 0 2.363.362 3.155 1.397l-1.584 1.318c-.41-.498-1.004-.78-1.77-.78-1.558 0-2.707 1.29-2.707 3.064s1.15 3.064 2.642 3.064c.831 0 1.505-.376 1.928-1.02l1.716 1.303c-.779 1.13-2.1 1.653-3.38 1.653-2.919 0-5.045-1.95-5.045-5zm-6.232-.82v-2.163h1.346c.754 0 1.6.148 1.6 1.102 0 1.034-.978 1.062-1.73 1.062h-1.216zm2.971 5.579h2.47l-2.377-4.02c1.32-.241 2.02-1.276 2.02-2.606 0-2.218-1.61-2.89-3.526-2.89H85.22v9.516h2.06V37.05h1.017l1.954 3.804zM78.54 33.03c1.756 0 2.905 1.29 2.905 3.065 0 1.774-1.149 3.064-2.905 3.064-1.757 0-2.905-1.29-2.906-3.065 0-1.774 1.149-3.064 2.906-3.064zm0 8.065c2.918 0 5.044-1.95 5.044-5 0-3.051-2.127-5-5.044-5-2.919 0-5.045 1.948-5.045 5 0 3.05 2.127 4.999 5.045 5zm-8.37-2.93c0-1.748-4.384-.808-4.384-3.98 0-2.03 1.73-3.09 3.565-3.09 1.057 0 2.073.281 2.866.993l-1.413 1.573c-.33-.43-.99-.632-1.492-.632-.582 0-1.388.269-1.388.981 0 1.734 4.306.619 4.306 3.953 0 2.123-1.677 3.13-3.606 3.13-1.2 0-2.257-.363-3.142-1.196l1.466-1.64c.423.565 1.11.9 1.796.9.673 0 1.426-.321 1.426-.993zm-6.128-6.83v9.516h-2.694l-4.08-6.774h-.026v6.773h-2.06l-.001-9.515h2.8l3.975 6.613h.026v-6.612h2.06zm-15.54 7.822c-1.756 0-2.905-1.29-2.905-3.065s1.148-3.064 2.905-3.064c1.756 0 2.905 1.29 2.905 3.065 0 1.774-1.149 3.064-2.905 3.064zm0-8.065c-2.919 0-5.045 1.949-5.045 5 0 3.05 2.127 5 5.045 5s5.044-1.949 5.044-5c0-3.05-2.126-5-5.044-5zm-14.325 4.999c0-3.051 2.126-5 5.045-5 1.043 0 2.364.364 3.156 1.398l-1.584 1.317c-.41-.497-1.004-.779-1.77-.779-1.559 0-2.707 1.29-2.707 3.064s1.149 3.065 2.64 3.065c.833 0 1.506-.376 1.929-1.022l1.717 1.304c-.78 1.13-2.1 1.653-3.38 1.653-2.92 0-5.046-1.949-5.046-5zm93.514 16.733h4.53v1.935h-6.59v-9.516h6.352v1.937h-4.292v1.773h4.054v1.936h-4.054v1.935zm-4.279-7.581v9.515h-2.06V47.46h-.026l-2.456 7.298h-1.572l-2.365-7.298h-.025v7.298h-2.06v-9.516h3.116l2.153 6.21h.026l2.166-6.21h3.103zm-12.331 6.625c0 2.124-1.677 3.132-3.605 3.132-1.201 0-2.258-.364-3.143-1.197l1.466-1.64c.422.565 1.11.9 1.796.9.674 0 1.426-.321 1.426-.993 0-1.748-4.384-.808-4.384-3.98 0-2.029 1.73-3.09 3.565-3.09 1.056 0 2.073.282 2.866.995l-1.413 1.572c-.33-.43-.99-.632-1.492-.632-.582 0-1.387.268-1.387.981 0 1.734 4.305.619 4.305 3.952zm-12.464.953h4.53v1.936h-6.59v-9.516h6.352v1.936h-4.292v1.773h4.054v1.936h-4.054v1.935zm-7.658-3.643h-1.214v-2.164h1.346c.753 0 1.599.149 1.599 1.103 0 1.035-.978 1.062-1.73 1.061zm3.87-1.047c0-2.219-1.612-2.89-3.526-2.89h-3.62l.001 9.515h2.06v-3.803h1.018l1.954 3.803h2.47l-2.378-4.018c1.32-.243 2.02-1.277 2.02-2.607zm-14.433 2.834l1.136-2.957 1.149 2.957h-2.285zm.343-5.725l-4.041 9.514 2.272.001.778-2.016h3.633l.806 2.017h2.324l-4.069-9.516H80.74zm-5.217 0v9.514h-2.059v-7.297h-.027l-2.456 7.297h-1.57l-2.365-7.298h-.026v7.298h-2.06v-9.515h3.117l2.152 6.209h.027l2.165-6.209h3.103zm-19.89 7.578h3.818v1.935h-5.877v-9.516h2.06v7.581zm-8.554-.001h4.53v1.935h-6.59v-9.516h6.352v1.937l-4.292-.001v1.774h4.053v1.936h-4.053v1.935zm-9.268 0h-1.07V47.17h1.215c1.743 0 3.208.874 3.208 2.742 0 2.164-1.438 2.903-3.353 2.903zm-.04-7.581h-3.09v9.515h3.368c2.786 0 5.255-1.652 5.255-4.73 0-3.481-2.522-4.785-5.533-4.785zM7.17 17.323c-.033.034-.13.166-.196.166-.13 0-.195-.1-.325-.298-.228-.33-1.366-1.721-1.561-1.986-.065-.1-.13-.199-.13-.33 0-.365.195-.63.195-4.668 0-.53-.033-2.847 0-3.343.52.165 1.854.794 2.146.96.359.231.359.562.359.893 0 .43-.033 1.589-.066 2.383 2.797-2.416 6.018-4.07 7.285-4.07.944 0 2.082 1.356 2.213 1.72.162.398.097 1.721.097 2.615 1.788-1.82 5.53-4.336 7.187-4.336.39 0 1.335 0 2.472 1.59.488.694.521 1.058.521 1.62 0 .928-.26 6.092-.26 7.084 0 .298 0 .365-.13.365s-1.074-.762-1.268-.927c-.554-.43-.554-.53-.554-.828 0-.496.098-3.078.098-3.64 0-.464-.065-.994-.65-.994-.748 0-4.131 2.582-6.7 5.793-.359.43-.391.463-.489.463-.032 0-1.593-.761-1.788-.86-.65-.298-.684-.332-.684-.795 0-.364.196-2.98.196-3.542 0-.165 0-.629-.553-.629-.26 0-1.886.497-5.172 3.476-.78.695-1.789 1.622-2.244 2.118zm17.22 9.25c-.943 0-2.08-1.358-2.21-1.722-.164-.397-.098-1.721-.098-2.615-1.79 1.82-5.53 4.337-7.188 4.337-.39 0-1.334 0-2.472-1.59-.488-.695-.52-1.058-.52-1.622 0-.926.26-6.09.26-7.083 0-.298 0-.364.13-.364s1.073.761 1.268.927c.553.43.553.53.553.827 0 .497-.098 3.079-.098 3.642 0 .463.066.992.651.992.747 0 4.13-2.581 6.7-5.792.358-.43.39-.464.488-.464.032 0 1.593.762 1.788.86.651.299.683.332.683.795 0 .365-.195 2.98-.195 3.542 0 .166 0 .63.553.63.26 0 1.886-.498 5.171-3.476l.262-.234V.003L0 0l.001 30.65 30.116.002v-6.91c-2.35 1.724-4.69 2.83-5.727 2.83z" mask="url(#b)"/></g></svg>